<svg xmlns="http://www.w3.org/2000/svg" viewBox="0 0 24 24" width="24" height="24">
  <path d="M12 .296c-6.627 0-12 5.373-12 12 0 5.302 3.438 9.8 8.207 11.397.6.112.82-.26.82-.578 0-.287-.01-1.048-.016-2.062-3.338.73-4.035-1.596-4.035-1.596-.546-1.388-1.335-1.759-1.335-1.759-1.091-.743.084-.73.084-.73 1.207.085 1.843 1.243 1.843 1.243 1.073 1.838 2.815 1.307 3.5.998.107-.78.42-1.307.762-1.607-2.667-.303-5.467-1.335-5.467-5.933 0-1.31.468-2.381 1.237-3.219-.124-.303-.536-1.517.111-3.16 0 0 1.003-.316 3.292 1.229.955-.265 1.977-.398 2.99-.402 1.013.004 2.035.137 2.99.402 2.289-1.545 3.292-1.229 3.292-1.229.647 1.643.235 2.858.111 3.16.77.838 1.237 1.909 1.237 3.219 0 4.609-2.805 5.629-5.472 5.933.429.37.815 1.099.815 2.219 0 1.603-.015 2.898-.015 3.29 0 .318.22.693.825.578C20.562 22.095 24 17.598 24 12.296c0-6.627-5.373-12-12-12z"/>
</svg>
