<svg xmlns="http://www.w3.org/2000/svg" viewBox="0 0 24 24" width="24" height="24">
  <path d="M4.98 3.5C4.98 2.12 6.08 1 7.46 1 8.84 1 9.94 2.12 9.94 3.5 9.94 4.88 8.84 6 7.46 6 6.08 6 4.98 4.88 4.98 3.5zM7.46 0C5.26 0 3.46 1.8 3.46 3.5 3.46 5.7 5.26 7.5 7.46 7.5 9.66 7.5 11.46 5.7 11.46 3.5 11.46 1.8 9.66 0 7.46 0zM24 12.14c0-1.8-1.6-3.4-3.4-3.4h-2.8v6.8h2.8c1.8 0 3.4-1.6 3.4-3.4zm-6.2 2.6v-4.6h2.1c1.2 0 2.2.9 2.2 2.3 0 1.3-.9 2.3-2.2 2.3h-2.1zm-6.8-1.3c-.6 0-1.1-.5-1.1-1.1V8.8H9.5v4.5h3.4zm-.1-2.6c0-.6.5-1.1 1.1-1.1 0 .1.1.1.1.2v-.2h3.4v-.2c0 .1 0 .1-.1.2-.6.1-1.1.5-1.1 1.1z"/>
</svg>
